<?xml version="1.0" encoding="UTF-8"?>
<svg width="291px" height="291px" viewBox="0 0 291 291" version="1.1" xmlns="http://www.w3.org/2000/svg" xmlns:xlink="http://www.w3.org/1999/xlink">
    <!-- Generator: Sketch 63.1 (92452) - https://sketch.com -->
    <title>html-css-logo</title>
    <desc>Created with Sketch.</desc>
    <g id="Detalle-del-curso-/-carrera" stroke="none" stroke-width="1" fill="none" fill-rule="evenodd">
        <g id="Detalle-del-curso" transform="translate(-815.000000, -117.000000)">
            <g id="html-css-logo" transform="translate(815.000000, 117.000000)">
                <path d="M145.498991,-4.26325641e-14 C225.857042,-4.26325641e-14 291,65.1413918 291,145.497982 C291,152.39246 290.520505,159.174915 289.593046,165.81382 C281.52043,164.20618 272.644886,167.681437 267.838403,174.375894 C262.950161,181.186186 262.552599,190.92806 266.872897,198.110927 C258.623988,196.332368 250.492585,206.272295 253.863044,214.019908 C242.392518,204.599626 226.292262,201.136633 211.97222,205.013381 C197.650219,208.888169 185.482491,220.000729 180.314194,233.925255 C174.805129,229.701423 165.868812,231.111328 161.926492,236.829384 C159.037807,227.80717 149.541379,221.387102 140.103703,222.075387 C130.666027,222.763672 122.199733,230.493637 120.646698,239.841365 C115.956257,228.717039 100.991891,223.385285 90.3399889,229.048435 C88.4070182,219.747769 80.163985,212.115851 70.751769,210.913804 C61.3415113,209.707835 51.4475214,215.021941 47.2427716,223.538237 C45.9410421,214.448645 36.3767724,207.741233 27.4303699,208.637915 L27.4303699,208.637915 L27.125,208.671 L27.2381839,208.630523 C35.1697377,205.683552 40.9561457,197.143674 40.1434617,188.620051 C39.2053736,178.79974 29.6639012,170.622685 19.8286642,171.209001 C21.574643,160.851043 10.2459744,150.83264 0.215947765,153.409652 C0.0710962551,150.790986 0,148.152789 0,145.497982 C0,65.1413918 65.1429582,-4.26325641e-14 145.498991,-4.26325641e-14 Z M27.125,208.671 L26.9359635,208.739734 C25.8241075,209.130231 24.6717547,209.410917 23.4909288,209.566649 C24.6720973,209.11344 25.890266,208.819743 27.125,208.671 L27.125,208.671 Z" id="nuves" fill="#ECB8CE"></path>
                <g id="js" transform="translate(36.000000, 22.000000)" fill-rule="nonzero">
                    <g id="Group" transform="translate(12.000000, 24.000000)">
                        <g id="html-5">
                            <polygon id="Path" fill="#FF5722" points="0 0 9.83571429 111.6 54 124 98.1488571 111.60775 108 0"></polygon>
                            <polygon id="Path" fill="#FAFAFA" points="86.0670113 37.0312203 53.5718365 37.0312203 34.5811499 37.0312203 35.8088307 50.9893546 53.5718365 50.9893546 84.8393305 50.9893546 81.1486153 92.8406095 53.5718365 100.579697 53.5488175 100.587413 25.9873847 92.8406095 24.0614605 70.9504896 37.5659488 70.9504896 38.5711124 82.3083523 53.5564905 86.4055161 53.5718365 86.3978002 53.5718365 86.3978002 68.5725606 82.3006364 70.1378536 64.6234194 53.5718365 64.6234194 53.5718365 64.6234194 23.5090042 64.6234194 19.872 23.4125874 53.5718365 23.4125874 87.264 23.4125874"></polygon>
                        </g>
                        <g id="css" transform="translate(87.000000, 49.000000)">
                            <polygon id="Path" fill="#29A9DF" points="0 0 9.83571429 111.6 54 124 98.1488571 111.60775 108 0"></polygon>
                            <polygon id="Path" fill="#FFFFFF" points="86.9708571 36.49475 85.7288571 50.5145 81.9874286 92.5505 54 100.316 53.9845714 100.32375 26.0202857 92.54275 24.0608571 70.56375 37.7614286 70.56375 38.7797143 81.97175 53.9845714 86.09475 54 86.07925 69.2202857 81.95625 71.2954286 62.961 23.4051429 63.09275 22.0474286 50.096 72.4448571 49.507 73.4631429 35.59575 20.6974286 35.743 19.8102857 22.816 54 22.816 88.1897143 22.816"></polygon>
                        </g>
                    </g>
                </g>
                <path d="M19.8286642,171.209001 C29.6639012,170.622685 39.2053736,178.79974 40.1434617,188.620051 C40.9561457,197.143674 35.1697377,205.683552 27.2381839,208.630523 L27.1204885,208.671795 L27.4303699,208.637915 C36.3767724,207.741233 45.9410421,214.448645 47.2427716,223.538237 C51.4475214,215.021941 61.3415113,209.707835 70.751769,210.913804 C80.163985,212.115851 88.4070182,219.747769 90.3399889,229.048435 C100.991891,223.385285 115.956257,228.717039 120.646698,239.841365 C122.199733,230.493637 130.666027,222.763672 140.103703,222.075387 C149.541379,221.387102 159.037807,227.80717 161.926492,236.829384 C165.868812,231.111328 174.805129,229.701423 180.314194,233.925255 C185.482491,220.000729 197.650219,208.888169 211.97222,205.013381 C226.292262,201.136633 242.392518,204.599626 253.863044,214.019908 C250.492585,206.272295 258.623988,196.332368 266.872897,198.110927 C262.552599,190.92806 262.950161,181.186186 267.838403,174.375894 C272.644688,167.681713 281.519697,164.206467 289.587986,165.812231 C279.710227,236.556637 218.962785,291 145.498991,291 C67.7974805,291 4.32053335,230.091349 0.211467455,153.410379 C10.2467375,150.833315 21.5745842,160.851392 19.8286642,171.209001 Z M27.1214885,208.671795 L26.8144641,208.711874 C25.6874949,208.8698 24.5736666,209.151207 23.4909288,209.566649 C24.6717547,209.410917 25.8241075,209.130231 26.9359635,208.739734 L27.1214885,208.671795 Z" id="Combined-Shape" fill="#FBF1F5"></path>
            </g>
        </g>
    </g>
</svg>